# xmcd
#
# Track frame offsets:
#	150
#	13657
#	27074
#	39995
#	52849
#	66406
#	79135
#	92506
#	104498
#	115745
#	126054
#	136776
#	148249
#	160705
#	171554
#	183357
#	194514
#
# Disc length: 2735 seconds
#
# Revision: 1
# Processed by: cddbd v1.5.1PL0 Copyright (c) Steve Scherf et al.
# Submitted via: audiograbber 1.82.01
#
DISCID=e30aad11
DTITLE=Robert Johnson - Guitar and Bass
DYEAR=2004
DGENRE=
TTITLE0=I believe I'll dust my broom
TTITLE1=Sweet home Chicago
TTITLE2=Ramblin' on my mind
TTITLE3=Come on in my kitchen
TTITLE4=Terraplane blues
TTITLE5=32-200 blues
TTITLE6=They're red hot
TTITLE7=Cross road blues
TTITLE8=Walkin' blues
TTITLE9=Love in vain
TTITLE10=Stop breakin' down blues
TTITLE11=Me and the devil blues
TTITLE12=Traveling riverside blues
TTITLE13=From four until late
TTITLE14=I'm a steady rollin' man
TTITLE15=Stones ni my passway
TTITLE16=Malted milk
EXTD=
EXTT0=
EXTT1=
EXTT2=
EXTT3=
EXTT4=
EXTT5=
EXTT6=
EXTT7=
EXTT8=
EXTT9=
EXTT10=
EXTT11=
EXTT12=
EXTT13=
EXTT14=
EXTT15=
EXTT16=
PLAYORDER=
